grf
version=1
nRows=21
nColumns=19
inDegrees=yes
endheader
time	ground_force_1_vx	ground_force_1_vy	ground_force_1_vz	ground_force_1_px	ground_force_1_py	ground_force_1_pz	ground_moment_1_mx	ground_moment_1_my	ground_moment_1_mz	ground_force_2_vx	ground_force_2_vy	ground_force_2_vz	ground_force_2_px	ground_force_2_py	ground_force_2_pz	ground_moment_2_mx	ground_moment_2_my	ground_moment_2_mz
3.507000	5.108278	1383.574951	-391.011047	0.194656	0.000000	-0.785838	0.000000	12.646998	0.000000	-5.535286	1479.820801	429.828979	0.219045	0.000000	-1.580135	0.000000	-13.019454	-0.000000
3.508000	6.158064	1394.309570	-391.570343	0.194277	0.000000	-0.787142	0.000000	12.536247	-0.000000	-7.024770	1484.607178	429.627747	0.219811	0.000000	-1.581236	0.000000	-12.849775	-0.000000
3.509000	6.802361	1397.838379	-392.900238	0.194477	0.000000	-0.787109	0.000000	12.516628	0.000000	-5.897650	1481.093262	430.914001	0.219172	0.000000	-1.579575	0.000000	-12.924071	-0.000000
3.510000	9.796066	1398.673706	-393.863739	0.193470	0.000000	-0.786188	0.000000	12.309452	0.000000	-5.053928	1482.215332	431.718811	0.219274	0.000000	-1.580342	0.000000	-13.018996	-0.000000
3.511000	7.677855	1404.774048	-394.788269	0.193041	0.000000	-0.786935	0.000000	13.357014	0.000000	-4.853490	1478.061401	433.045471	0.219180	0.000000	-1.580124	0.000000	-13.076082	-0.000000
3.512000	11.400909	1411.008423	-395.551849	0.193647	0.000000	-0.787753	0.000000	12.431581	0.000000	-4.571607	1484.756226	432.522980	0.218588	0.000000	-1.579957	0.000000	-13.324424	-0.000000
3.513000	13.613989	1405.583740	-395.230774	0.193534	0.000000	-0.785998	0.000000	12.664813	0.000000	-4.609846	1490.180664	433.689087	0.218468	0.000000	-1.579701	0.000000	-13.117864	-0.000000
3.514000	13.255970	1405.575317	-397.965759	0.193031	0.000000	-0.787916	0.000000	12.532426	0.000000	-5.177752	1481.572998	434.132568	0.218685	0.000000	-1.580721	0.000000	-13.687478	0.000000
3.515000	14.224127	1420.018311	-397.602600	0.192833	0.000000	-0.788609	0.000000	12.562505	0.000000	-3.365110	1491.131836	434.856384	0.218342	0.000000	-1.579968	0.000000	-13.492515	-0.000000
3.516000	17.053814	1424.044434	-399.050201	0.192070	0.000000	-0.788286	0.000000	12.423739	0.000000	-3.445313	1487.469971	435.942261	0.218577	0.000000	-1.580659	0.000000	-13.359951	-0.000000
3.517000	16.437967	1414.740479	-397.192322	0.192407	0.000000	-0.787948	0.000000	12.543937	0.000000	-1.311170	1496.710205	437.911499	0.217534	0.000000	-1.580308	0.000000	-13.369625	-0.000000
3.518000	18.091427	1421.810303	-399.492981	0.192282	0.000000	-0.787326	0.000000	12.755748	0.000000	-2.319849	1505.008545	438.355042	0.219006	0.000000	-1.581867	0.000000	-13.206138	-0.000000
3.519000	18.334034	1425.347168	-399.974243	0.191662	0.000000	-0.787806	0.000000	12.897057	0.000000	-2.399636	1495.921631	438.596130	0.218519	0.000000	-1.580124	0.000000	-13.316496	-0.000000
3.520000	19.098307	1429.998779	-400.859741	0.191592	0.000000	-0.788510	0.000000	12.984955	0.000000	-3.486725	1487.937500	440.607635	0.219226	0.000000	-1.579954	0.000000	-13.182647	-0.000000
3.521000	20.468527	1440.720947	-401.302979	0.192058	0.000000	-0.788369	0.000000	12.816697	0.000000	-2.681935	1498.618896	440.446045	0.218132	0.000000	-1.579937	0.000000	-13.551409	0.000000
3.522000	19.897112	1413.710938	-402.229553	0.190085	0.000000	-0.787084	0.000000	13.899209	0.000000	-2.077031	1493.397461	442.739075	0.218994	0.000000	-1.582054	0.000000	-13.025832	0.000000
3.523000	23.895416	1430.509155	-401.265869	0.191097	0.000000	-0.786978	0.000000	13.273561	0.000000	-1.554399	1503.879639	443.341675	0.218194	0.000000	-1.580123	0.000000	-13.336689	-0.000000
3.524000	22.565435	1430.673584	-404.161743	0.190718	0.000000	-0.788366	-0.000000	13.293069	0.000000	-2.239368	1499.254761	444.186646	0.217551	0.000000	-1.580559	0.000000	-13.797424	0.000000
3.525000	23.288702	1428.910645	-404.160797	0.191040	0.000000	-0.786971	0.000000	13.190203	-0.000000	-1.755529	1504.043701	444.749512	0.217842	0.000000	-1.580178	0.000000	-13.505908	-0.000000
3.526000	24.057156	1432.609863	-404.200714	0.190565	0.000000	-0.788006	-0.000000	13.281734	0.000000	-1.393993	1502.448975	446.237244	0.217745	0.000000	-1.580491	0.000000	-13.559472	-0.000000
3.527000	24.659304	1432.920898	-404.764435	0.190989	0.000000	-0.787563	0.000000	13.200971	0.000000	-2.118719	1503.879150	446.679016	0.217514	0.000000	-1.580442	0.000000	-13.693914	-0.000000
